<?xml version="1.0" encoding="iso-8859-1"?>
<!-- Generator: Adobe Illustrator 19.0.0, SVG Export Plug-In . SVG Version: 6.00 Build 0)  -->
<svg version="1.1" id="Capa_1" xmlns="http://www.w3.org/2000/svg" xmlns:xlink="http://www.w3.org/1999/xlink" x="0px" y="0px"
	 viewBox="0 0 513.914 513.914" style="enable-background:new 0 0 513.914 513.914;" xml:space="preserve">
<g>
	<g>
		<g>
			<path d="M134.734,379.514c-3.2-3.2-8-3.2-11.2,0l-26.4,26.4l-26.4-26.4c-3.2-3.2-8-3.2-11.2,0c-3.2,3.2-3.2,8,0,11.2l26.4,26.4
				l-26.4,26.4c-3.2,3.2-3.2,8,0,11.2c1.6,1.6,3.2,2.4,5.6,2.4c2.4,0,4-0.8,5.6-2.4l26.4-26.4l26.4,26.4c1.6,1.6,4,2.4,5.6,2.4
				c1.6,0,4-0.8,5.6-2.4c3.2-3.2,3.2-8,0-11.2l-26.4-26.4l26.4-26.4C137.934,387.514,137.934,382.714,134.734,379.514z"/>
			<path d="M257.134,137.114c-4.8,0-8,3.2-8,8v42.4c-0.8,0-1.6,0-2.4,0l2.4,15.2v62.4c0,4.8,3.2,8,8,8h61.6c0,0.8-0.8,2.4-0.8,3.2
				l16,4c0.8-2.4,0.8-4.8,1.6-6.4h25.6c4.8,0,8-3.2,8-8s-3.2-8-8-8h-96v-112.8C265.134,140.314,261.934,137.114,257.134,137.114z"/>
			<path d="M229.934,313.914c-4-2.4-8-4.8-11.2-8l-11.2,12c4,4,8.8,7.2,14.4,10.4L229.934,313.914z"/>
			<path d="M189.134,288.314l15.2-5.6c-1.6-4-2.4-8.8-3.2-13.6l-16,1.6C185.134,277.114,186.734,282.714,189.134,288.314z"/>
			<path d="M192.334,296.314c2.4,5.6,5.6,10.4,9.6,14.4l12-10.4c-3.2-3.2-5.6-7.2-8-11.2L192.334,296.314z"/>
			<path d="M229.934,332.314c5.6,2.4,11.2,4,16.8,4.8l2.4-16c-4.8-0.8-8.8-2.4-13.6-4L229.934,332.314z"/>
			<path d="M255.534,337.914c1.6,0,3.2,0,4,0c4.8,0,8.8,0,13.6-0.8l-2.4-16c-4.8,0.8-9.6,0.8-13.6,0.8L255.534,337.914z"/>
			<path d="M188.334,237.114l15.2,5.6c1.6-4,4-8.8,6.4-12l-13.6-8.8C193.134,225.914,190.734,231.514,188.334,237.114z"/>
			<path d="M221.934,197.114l8,13.6c4-2.4,8-4,12.8-5.6l-4.8-15.2C232.334,191.514,226.734,193.914,221.934,197.114z"/>
			<path d="M201.934,213.914l12,10.4c3.2-3.2,6.4-6.4,10.4-9.6l-9.6-12.8C209.934,205.114,205.134,209.914,201.934,213.914z"/>
			<path d="M185.134,262.714h16c0-4.8,0-8.8,1.6-13.6l-15.2-4C185.134,250.714,185.134,256.314,185.134,262.714z"/>
			<path d="M269.934,203.514c4.8,0.8,8.8,2.4,13.6,4l5.6-14.4c-5.6-2.4-11.2-4-16.8-4.8L269.934,203.514z"/>
			<path d="M334.734,253.114c-0.8-5.6-2.4-11.2-4-16.8l-15.2,5.6c1.6,4,2.4,8.8,3.2,13.6L334.734,253.114z"/>
			<path d="M289.134,210.714c4,2.4,8,4.8,11.2,8l11.2-12c-4-4-8.8-7.2-14.4-10.4L289.134,210.714z"/>
			<path d="M305.134,223.514c3.2,3.2,5.6,7.2,8,11.2l14.4-7.2c-2.4-5.6-5.6-10.4-9.6-14.4L305.134,223.514z"/>
			<path d="M277.134,319.514l4.8,15.2c5.6-1.6,11.2-4,16-7.2l-8-13.6C285.934,316.314,281.134,317.914,277.134,319.514z"/>
			<path d="M317.934,310.714l-12.8-9.6c-3.2,3.2-6.4,6.4-10.4,9.6l9.6,12.8C309.934,319.514,313.934,315.514,317.934,310.714z"/>
			<path d="M330.734,288.314l-15.2-5.6c-1.6,4-4,8.8-6.4,12l13.6,8.8C325.934,298.714,329.134,293.914,330.734,288.314z"/>
			<path d="M214.734,439.514c16,4,32,6.4,48.8,6.4c48,0,95.2-18.4,129.6-52.8c72-72,70.4-189.6-3.2-263.2c-0.8-0.8-1.6-1.6-2.4-2.4
				c0,0,0-0.8-0.8-0.8l-0.8-0.8c-73.6-69.6-188.8-69.6-259.2,0.8c-42.4,42.4-60.8,104-49.6,163.2c0.8,4,4.8,7.2,9.6,6.4
				c4-0.8,7.2-4.8,6.4-9.6c-9.6-52,4.8-104.8,40-143.2l11.2,11.2c1.6,1.6,4,2.4,5.6,2.4c1.6,0,4-0.8,5.6-2.4c3.2-3.2,3.2-8,0-11.2
				l-11.2-11.2c63.2-56.8,160-56.8,225.6,0l-11.2,11.2c-3.2,3.2-3.2,8,0,11.2c1.6,1.6,4,2.4,5.6,2.4c1.6,0,4-0.8,5.6-2.4l11.2-11.2
				c62.4,65.6,64.8,166.4,5.6,231.2l-11.2-11.2c-3.2-3.2-8-3.2-11.2,0s-3.2,8,0,11.2l11.2,11.2c-41.6,37.6-100.8,52-156.8,36.8
				c-4-0.8-8.8,1.6-9.6,5.6C208.334,433.914,210.734,438.714,214.734,439.514z"/>
			<path d="M512.334,407.514l-36.8-98.4c4-16.8,6.4-34.4,6.4-52c0-49.6-15.2-96-44.8-134.4l17.6-17.6c3.2-3.2,3.2-8,0-11.2
				l-32.8-32.8c-3.2-3.2-8-3.2-11.2,0l-17.6,16.8c-54.4-41.6-124-54.4-187.2-39.2l-104-38.4c-3.2-0.8-6.4,0-8,1.6l-90.4,89.6
				c-2.4,2.4-3.2,5.6-1.6,8.8l40,95.2c-8.8,30.4-11.2,62.4-6.4,95.2c0.8,4,4.8,7.2,8.8,6.4c4-0.8,7.2-4.8,6.4-8.8
				c-9.6-66.4,12-131.2,59.2-178.4c81.6-81.6,213.6-81.6,295.2-0.8c39.2,39.2,60.8,91.2,60.8,147.2c0,16-1.6,31.2-5.6,46.4
				c-1.6,1.6-1.6,4-1.6,6.4c-9.6,35.2-28,68-54.4,94.4c-26.4,26.4-60,44.8-95.2,54.4c-2.4,0-4,0-5.6,1.6c-27.2,6.4-56,7.2-84.8,2.4
				c-4-0.8-8.8,2.4-9.6,6.4s2.4,8.8,6.4,9.6c13.6,2.4,27.2,4,40.8,4c17.6,0,36-2.4,52.8-6.4l105.6,37.6c0.8,0,1.6,0.8,2.4,0.8
				c2.4,0,4-0.8,5.6-2.4l88-96C513.134,413.114,513.134,409.914,512.334,407.514z M19.534,97.914l81.6-80.8l24.8,8.8l-96.8,96
				L19.534,97.914z M98.734,98.714c-21.6,21.6-38.4,47.2-49.6,74.4l-14.4-34.4l107.2-106.4l37.6,13.6
				C150.734,57.914,122.734,74.714,98.734,98.714z M416.334,98.714c-4-4-7.2-7.2-11.2-10.4l11.2-11.2l21.6,21.6l-11.2,11.2
				C423.534,105.914,419.534,101.914,416.334,98.714z M334.734,467.514c29.6-11.2,57.6-28.8,80.8-52s40.8-51.2,52-81.6l12.8,32.8
				l-108,114.4L334.734,467.514z M414.734,495.514l-25.6-8.8l97.6-103.2l8.8,24L414.734,495.514z"/>
			<path d="M204.334,369.914c-4-1.6-8.8,0-10.4,4l-5.6,12c-4.8-13.6-12.8-26.4-23.2-36.8c-37.6-37.6-98.4-37.6-136,0
				c-18.4,18.4-28,42.4-28,68c0,25.6,9.6,49.6,28,68c19.2,18.4,43.2,28,68,28s49.6-9.6,68-28c3.2-3.2,3.2-8,0-11.2s-8-3.2-11.2,0
				c-31.2,31.2-82.4,31.2-113.6,0c-15.2-15.2-23.2-35.2-23.2-56.8c0-21.6,8-41.6,23.2-56.8c31.2-31.2,82.4-31.2,113.6,0
				c9.6,9.6,16.8,21.6,20.8,35.2l-17.6-9.6c-4-2.4-8.8-0.8-11.2,3.2c-2.4,4-0.8,8.8,3.2,11.2l32,16.8c0,0,0.8,0,0.8,0.8
				c0.8,0,1.6,0.8,2.4,0.8c0,0,0,0,0.8,0s0.8,0,1.6,0c0,0,0,0,0.8,0s0.8-0.8,1.6-0.8c0.8,0,0.8-0.8,0.8-0.8c0.8-0.8,0.8-0.8,0.8-1.6
				l0.8-0.8l16-32.8C209.934,376.314,208.334,371.514,204.334,369.914z"/>
		</g>
	</g>
</g>
<g>
</g>
<g>
</g>
<g>
</g>
<g>
</g>
<g>
</g>
<g>
</g>
<g>
</g>
<g>
</g>
<g>
</g>
<g>
</g>
<g>
</g>
<g>
</g>
<g>
</g>
<g>
</g>
<g>
</g>
</svg>
